<svg xmlns="http://www.w3.org/2000/svg" xmlns:xlink="http://www.w3.org/1999/xlink" version="1.1" x="0px" y="0px" viewBox="0 0 100 100" enable-background="new 0 0 100 100" xml:space="preserve"><path
  d="M65.666,81.404h-0.364V18.596h0.364c2.514,0,4.559-2.045,4.559-4.559c0-2.44-1.928-4.439-4.341-4.553  C64.624,5.855,57.108,3.91,50,3.91c-7.109,0-14.625,1.945-15.884,5.575c-2.413,0.114-4.34,2.113-4.34,4.553  c0,2.514,2.044,4.559,4.558,4.559h0.365v62.808h-0.365c-2.514,0-4.558,2.044-4.558,4.558c0,2.44,1.928,4.439,4.34,4.554  c1.259,3.63,8.775,5.574,15.884,5.574c7.108,0,14.624-1.944,15.883-5.574c2.413-0.114,4.341-2.113,4.341-4.554  C70.225,83.448,68.18,81.404,65.666,81.404z M36.887,39.758l26.227,13.596v9.432L36.887,49.188V39.758z M36.887,75.029v-9.432  l26.227,13.597v2.21H49.183L36.887,75.029z M34.334,16.408c-1.307,0-2.37-1.063-2.37-2.371s1.063-2.37,2.37-2.37h1.786v-1.094  c0-1.869,5.281-4.476,13.88-4.476c8.599,0,13.879,2.607,13.879,4.476v1.094h1.786c1.307,0,2.371,1.063,2.371,2.37  s-1.064,2.371-2.371,2.371h-0.364H34.699H34.334z M42.376,18.596l20.737,10.751v9.431L36.887,25.182v-6.585H42.376z M65.666,88.333  H63.88v1.094c0,1.869-5.28,4.476-13.879,4.476c-8.6,0-13.88-2.606-13.88-4.476v-1.094h-1.786c-1.307,0-2.37-1.063-2.37-2.371  s1.063-2.37,2.37-2.37h0.365h30.603h0.364c1.307,0,2.371,1.063,2.371,2.37S66.973,88.333,65.666,88.333z"/>
</svg>
